<svg version="1.1" viewBox="0.0 0.0 960.0 540.0" fill="none" stroke="none" stroke-linecap="square" stroke-miterlimit="10" xmlns:xlink="http://www.w3.org/1999/xlink" xmlns="http://www.w3.org/2000/svg"><clipPath id="g3d22532087b_0_51.0"><path d="m0 0l960.0 0l0 540.0l-960.0 0l0 -540.0z" clip-rule="nonzero"/></clipPath><g clip-path="url(#g3d22532087b_0_51.0)"><path fill="#f5f0e8" d="m0 0l960.0 0l0 540.0l-960.0 0z" fill-rule="evenodd"/><path fill="#1e4d3b" d="m264.85962 103.546005c0 -6.47908 5.2523193 -11.731422 11.731415 -11.731422l415.48007 0c3.1113281 0 6.095276 1.2359848 8.295349 3.436058c2.2000732 2.2000656 3.4360352 5.183998 3.4360352 8.295364l0 81.52573c0 6.4790955 -5.2523193 11.73143 -11.731384 11.73143l-415.48007 0c-6.4790955 0 -11.731415 -5.2523346 -11.731415 -11.73143z" fill-rule="evenodd"/><path fill="#1e4d3b" d="m433.1107 109.12928c0 -9.562637 7.7520447 -17.314682 17.314697 -17.314682l69.25662 0c4.592163 0 8.996216 1.8242188 12.243347 5.07135c3.2471313 3.2471313 5.07135 7.6511917 5.07135 12.243332l0 403.63977c0 9.562622 -7.752014 17.314636 -17.314697 17.314636l-69.25662 0c-9.562653 0 -17.314697 -7.752014 -17.314697 -17.314636z" fill-rule="evenodd"/><path fill="#ffab40" d="m270.98593 324.99734c10.921722 -8.15863 39.678284 -23.158081 72.63995 -49.041504c32.9617 -25.883423 91.040955 -79.98085 125.13019 -106.259c34.089233 -26.278137 62.57608 -40.5652 79.405304 -51.40985c16.829163 -10.844643 14.170654 -9.2547455 21.569763 -13.658028c7.399048 -4.4032745 13.352905 -7.818962 22.824707 -12.761642c9.471741 -4.9426804 23.85321 -11.825165 34.00586 -16.89444c10.15271 -5.069275 19.28247 -9.206787 26.91034 -13.52121c7.6279297 -4.3144264 13.451233 -8.174374 18.857056 -12.365353c5.4058228 -4.190979 9.159607 -7.837837 13.57782 -12.780518c4.418213 -4.9426804 8.567505 -11.905365 12.931519 -16.875566c4.3639526 -4.9702005 13.679993 -19.056763 13.252258 -12.945641c-0.42773438 6.1111226 -10.00647 34.513058 -15.818787 49.612373c-5.812317 15.099316 -12.883484 29.539707 -19.055176 40.983517c-6.171692 11.4438095 -10.425537 17.67366 -17.974792 27.679329c-7.5492554 10.005661 -18.154114 22.648575 -27.3208 32.35466c-9.166687 9.706085 -14.438049 15.696121 -27.679321 25.881851c-13.241272 10.18573 -29.899048 22.949738 -51.768433 35.232513c-21.869324 12.282791 -58.417328 28.877655 -79.44769 38.46422c-21.030396 9.586578 -32.055084 13.363159 -46.734528 19.055206c-14.679443 5.6920166 -25.614502 9.820099 -41.34207 15.096954c-15.72757 5.2768555 -37.27533 11.615997 -53.023346 16.564178c-15.748016 4.948181 -32.493042 10.208527 -41.46472 13.124908c-8.97168 2.9164124 -9.119507 3.6295776 -12.365356 4.373413c-3.2458496 0.74383545 -18.031433 8.248291 -7.109741 0.08963013z" fill-rule="evenodd"/><path stroke="#f5f0e8" stroke-width="7.191601049868766" stroke-linejoin="round" stroke-linecap="butt" d="m270.98593 324.99734c10.921722 -8.15863 39.678284 -23.158081 72.63995 -49.041504c32.9617 -25.883423 91.040955 -79.98085 125.13019 -106.259c34.089233 -26.278137 62.57608 -40.5652 79.405304 -51.40985c16.829163 -10.844643 14.170654 -9.2547455 21.569763 -13.658028c7.399048 -4.4032745 13.352905 -7.818962 22.824707 -12.761642c9.471741 -4.9426804 23.85321 -11.825165 34.00586 -16.89444c10.15271 -5.069275 19.28247 -9.206787 26.91034 -13.52121c7.6279297 -4.3144264 13.451233 -8.174374 18.857056 -12.365353c5.4058228 -4.190979 9.159607 -7.837837 13.57782 -12.780518c4.418213 -4.9426804 8.567505 -11.905365 12.931519 -16.875566c4.3639526 -4.9702005 13.679993 -19.056763 13.252258 -12.945641c-0.42773438 6.1111226 -10.00647 34.513058 -15.818787 49.612373c-5.812317 15.099316 -12.883484 29.539707 -19.055176 40.983517c-6.171692 11.4438095 -10.425537 17.67366 -17.974792 27.679329c-7.5492554 10.005661 -18.154114 22.648575 -27.3208 32.35466c-9.166687 9.706085 -14.438049 15.696121 -27.679321 25.881851c-13.241272 10.18573 -29.899048 22.949738 -51.768433 35.232513c-21.869324 12.282791 -58.417328 28.877655 -79.44769 38.46422c-21.030396 9.586578 -32.055084 13.363159 -46.734528 19.055206c-14.679443 5.6920166 -25.614502 9.820099 -41.34207 15.096954c-15.72757 5.2768555 -37.27533 11.615997 -53.023346 16.564178c-15.748016 4.948181 -32.493042 10.208527 -41.46472 13.124908c-8.97168 2.9164124 -9.119507 3.6295776 -12.365356 4.373413c-3.2458496 0.74383545 -18.031433 8.248291 -7.109741 0.08963013z" fill-rule="evenodd"/></g></svg>