<svg version="1.1" viewBox="0.0 0.0 960.0 540.0" fill="none" stroke="none" stroke-linecap="square" stroke-miterlimit="10" xmlns:xlink="http://www.w3.org/1999/xlink" xmlns="http://www.w3.org/2000/svg"><clipPath id="g396b9fe9239_0_0.0"><path d="m0 0l960.0 0l0 540.0l-960.0 0l0 -540.0z" clip-rule="nonzero"/></clipPath><g clip-path="url(#g396b9fe9239_0_0.0)"><path fill="#f5f0e8" d="m0 0l960.0 0l0 540.0l-960.0 0z" fill-rule="evenodd"/><path fill="#1e4d3b" d="m16.166033 182.91333c0 -3.1660156 2.5665646 -5.7325897 5.732582 -5.7325897l194.32948 0c1.5203705 0 2.9784698 0.6039734 4.053543 1.6790314c1.0750732 1.0750732 1.6790314 2.5331726 1.6790314 4.0535583l0 39.837692c0 3.1660156 -2.5665588 5.7325745 -5.7325745 5.7325745l-194.32948 0c-3.1660175 0 -5.732582 -2.5665588 -5.732582 -5.7325745z" fill-rule="evenodd"/><path fill="#1e4d3b" d="m95.05142 185.29901c0 -4.483597 3.6346664 -8.118256 8.118256 -8.118256l32.472046 0c2.1530914 0 4.2180023 0.85531616 5.7404785 2.377777c1.5224609 1.5224609 2.377777 3.5873718 2.377777 5.7404785l0 197.94437c0 4.4835815 -3.634674 8.118256 -8.118256 8.118256l-32.472046 0c-4.483589 0 -8.118256 -3.634674 -8.118256 -8.118256z" fill-rule="evenodd"/><path fill="#e8913a" d="m19.03845 291.14413c5.1208477 -3.9873352 18.603903 -11.317963 34.058617 -23.967865c15.454716 -12.649918 42.686268 -39.08876 58.66966 -51.931564c15.983383 -12.842819 29.339981 -19.825287 37.230667 -25.12535c7.890671 -5.300064 6.6441956 -4.523041 10.113388 -6.675049c3.4692078 -2.1519928 6.260788 -3.8213348 10.7017975 -6.2369537c4.441025 -2.415619 11.184021 -5.7792664 15.944321 -8.256744c4.7602844 -2.4774933 9.040924 -4.4996033 12.617401 -6.608185c3.5764923 -2.1085663 6.3068695 -3.9950256 8.841492 -6.0432587c2.534607 -2.0482483 4.294647 -3.8305664 6.366211 -6.2461853c2.071579 -2.415619 4.017044 -5.818466 6.0631714 -8.247528c2.0461273 -2.4290771 6.414154 -9.313538 6.2135925 -6.326874c-0.20054626 2.9866638 -4.6917114 16.867432 -7.416931 24.246872c-2.7252197 7.379425 -6.04068 14.436829 -8.934387 20.029724c-2.8937073 5.5928802 -4.888214 8.6375885 -8.427826 13.527618c-3.5396118 4.89003 -8.511887 11.068954 -12.80986 15.812576c-4.2979736 4.7436066 -6.7695465 7.671097 -12.977982 12.649139c-6.208435 4.9780273 -14.018738 11.2161255 -24.272598 17.219055c-10.25386 6.0029297 -27.390083 14.113266 -37.250572 18.798462c-9.860489 4.685211 -15.029633 6.530945 -21.912361 9.312775c-6.882736 2.7818604 -12.00985 4.799347 -19.384018 7.378296c-7.3741684 2.578949 -17.477242 5.6770325 -24.860996 8.095337c-7.3837547 2.418335 -15.234985 4.989197 -19.441526 6.4145203c-4.206543 1.425293 -4.275852 1.7738342 -5.7977295 2.1373901c-1.5218754 0.3635254 -8.454375 4.0311584 -3.3335266 0.043792725z" fill-rule="evenodd"/><path stroke="#f5f0e8" stroke-width="3.5144356955380576" stroke-linejoin="round" stroke-linecap="butt" d="m19.03845 291.14413c5.1208477 -3.9873352 18.603903 -11.317963 34.058617 -23.967865c15.454716 -12.649918 42.686268 -39.08876 58.66966 -51.931564c15.983383 -12.842819 29.339981 -19.825287 37.230667 -25.12535c7.890671 -5.300064 6.6441956 -4.523041 10.113388 -6.675049c3.4692078 -2.1519928 6.260788 -3.8213348 10.7017975 -6.2369537c4.441025 -2.415619 11.184021 -5.7792664 15.944321 -8.256744c4.7602844 -2.4774933 9.040924 -4.4996033 12.617401 -6.608185c3.5764923 -2.1085663 6.3068695 -3.9950256 8.841492 -6.0432587c2.534607 -2.0482483 4.294647 -3.8305664 6.366211 -6.2461853c2.071579 -2.415619 4.017044 -5.818466 6.0631714 -8.247528c2.0461273 -2.4290771 6.414154 -9.313538 6.2135925 -6.326874c-0.20054626 2.9866638 -4.6917114 16.867432 -7.416931 24.246872c-2.7252197 7.379425 -6.04068 14.436829 -8.934387 20.029724c-2.8937073 5.5928802 -4.888214 8.6375885 -8.427826 13.527618c-3.5396118 4.89003 -8.511887 11.068954 -12.80986 15.812576c-4.2979736 4.7436066 -6.7695465 7.671097 -12.977982 12.649139c-6.208435 4.9780273 -14.018738 11.2161255 -24.272598 17.219055c-10.25386 6.0029297 -27.390083 14.113266 -37.250572 18.798462c-9.860489 4.685211 -15.029633 6.530945 -21.912361 9.312775c-6.882736 2.7818604 -12.00985 4.799347 -19.384018 7.378296c-7.3741684 2.578949 -17.477242 5.6770325 -24.860996 8.095337c-7.3837547 2.418335 -15.234985 4.989197 -19.441526 6.4145203c-4.206543 1.425293 -4.275852 1.7738342 -5.7977295 2.1373901c-1.5218754 0.3635254 -8.454375 4.0311584 -3.3335266 0.043792725z" fill-rule="evenodd"/><path fill="#000000" fill-opacity="0.0" d="m234.38846 118.62467l725.6284 0l0 251.4047l-725.6284 0z" fill-rule="evenodd"/><path fill="#1e4d3b" d="m317.02908 178.7984l0 128.90625l-24.25 0l0 -128.90625l24.25 0zm40.015625 0l0 19.203125l-103.84375 0l0 -19.203125l103.84375 0zm101.564514 109.78125l0 19.125l-68.53125 0l0 -19.125l68.53125 0zm-61.09375 -109.78125l0 128.90625l-24.34375 0l0 -128.90625l24.34375 0zm52.15625 53.203125l0 18.6875l-59.59375 0l0 -18.6875l59.59375 0zm8.671875 -53.203125l0 19.203125l-68.265625 0l0 -19.203125l68.265625 0zm120.668915 0l0 128.90625l-24.4375 0l-54.796844 -89.421875l0 89.421875l-24.34375 0l0 -128.90625l24.34375 0l54.984344 89.5l0 -89.5l24.25 0zm77.57446 19.5625l-36.75 109.34375l-25.765625 0l48.171875 -128.90625l16.46875 0l-2.125 19.5625zm30.71875 109.34375l-36.921875 -109.34375l-2.21875 -19.5625l16.5625 0l48.421875 128.90625l-25.84375 0zm-1.6875 -47.90625l0 19.21875l-69.140625 0l0 -19.21875l69.140625 0zm114.75696 5.5l24.34375 0q-0.984375 12.921875 -7.1875 22.890625q-6.1875 9.953125 -17.25 15.625q-11.0625 5.65625 -26.828125 5.65625q-12.125 0 -21.828125 -4.28125q-9.6875 -4.296875 -16.5625 -12.3125q-6.859375 -8.015625 -10.484375 -19.296875q-3.625 -11.296875 -3.625 -25.375l0 -9.828125q0 -14.078125 3.71875 -25.40625q3.71875 -11.328125 10.65625 -19.34375q6.953125 -8.015625 16.734375 -12.34375q9.796875 -4.34375 21.921875 -4.34375q15.765625 0 26.640625 5.796875q10.890625 5.796875 16.90625 15.890625q6.03125 10.09375 7.265625 23.1875l-24.34375 0q-0.703125 -8.140625 -3.5 -13.796875q-2.78125 -5.671875 -8.3125 -8.640625q-5.53125 -2.96875 -14.65625 -2.96875q-7.078125 0 -12.4375 2.65625q-5.359375 2.65625 -8.90625 7.9375q-3.53125 5.265625 -5.3125 13.09375q-1.765625 7.828125 -1.765625 18.109375l0 10.0q0 9.828125 1.59375 17.625q1.59375 7.78125 4.953125 13.1875q3.375 5.40625 8.6875 8.234375q5.3125 2.828125 12.65625 2.828125q8.9375 0 14.5625 -2.828125q5.625 -2.828125 8.59375 -8.3125q2.96875 -5.5 3.765625 -13.640625zm128.5539 23.28125l0 19.125l-68.53125 0l0 -19.125l68.53125 0zm-61.09375 -109.78125l0 128.90625l-24.34375 0l0 -128.90625l24.34375 0zm52.15625 53.203125l0 18.6875l-59.59375 0l0 -18.6875l59.59375 0zm8.671875 -53.203125l0 19.203125l-68.265625 0l0 -19.203125l68.265625 0z" fill-rule="nonzero"/><path fill="#000000" fill-opacity="0.0" d="m236.67424 316.59747l706.45917 0l0 104.776855l-706.45917 0z" fill-rule="evenodd"/><path fill="#595959" d="m272.50238 346.6243l0 42.90625l-5.59375 0l0 -42.90625l5.59375 0zm13.796875 0l0 4.65625l-33.156265 0l0 -4.65625l33.156265 0zm8.780273 16.03125l0 26.875l-5.453125 0l0 -31.875l5.296875 0l0.15625 5.0zm9.953125 -5.1875l-0.03125 5.078125q-0.671875 -0.15625 -1.28125 -0.1875q-0.59375 -0.046875 -1.359375 -0.046875q-1.890625 0 -3.34375 0.59375q-1.4375 0.578125 -2.4375 1.640625q-1.0 1.0625 -1.578125 2.515625q-0.578125 1.453125 -0.75 3.203125l-1.53125 0.875q0 -2.890625 0.5625 -5.421875q0.578125 -2.53125 1.78125 -4.484375q1.21875 -1.96875 3.09375 -3.0625q1.875 -1.109375 4.46875 -1.109375q0.578125 0 1.34375 0.140625q0.765625 0.125 1.0625 0.265625zm22.660492 26.609375l0 -16.40625q0 -1.890625 -0.75 -3.28125q-0.75 -1.40625 -2.265625 -2.171875q-1.5 -0.765625 -3.703125 -0.765625q-2.0625 0 -3.609375 0.703125q-1.546875 0.703125 -2.421875 1.859375q-0.859375 1.140625 -0.859375 2.46875l-5.453125 0q0 -1.703125 0.875 -3.375q0.890625 -1.6875 2.546875 -3.046875q1.671875 -1.375 4.015625 -2.1875q2.34375 -0.8125 5.234375 -0.8125q3.46875 0 6.140625 1.1875q2.671875 1.171875 4.1875 3.546875q1.515625 2.359375 1.515625 5.9375l0 14.84375q0 1.59375 0.28125 3.390625q0.28125 1.796875 0.84375 3.09375l0 0.46875l-5.6875 0q-0.421875 -0.9375 -0.65625 -2.515625q-0.234375 -1.578125 -0.234375 -2.9375zm0.9375 -13.875l0.0625 3.828125l-5.515625 0q-2.3125 0 -4.140625 0.375q-1.828125 0.359375 -3.078125 1.109375q-1.234375 0.734375 -1.890625 1.84375q-0.640625 1.09375 -0.640625 2.5625q0 1.5 0.671875 2.75q0.6875 1.234375 2.046875 1.953125q1.375 0.71875 3.390625 0.71875q2.5 0 4.40625 -1.0625q1.921875 -1.0625 3.046875 -2.59375q1.140625 -1.53125 1.234375 -2.96875l2.328125 2.625q-0.203125 1.234375 -1.125 2.734375q-0.90625 1.5 -2.421875 2.875q-1.515625 1.375 -3.59375 2.28125q-2.078125 0.890625 -4.671875 0.890625q-3.25 0 -5.6875 -1.265625q-2.421875 -1.265625 -3.765625 -3.40625q-1.328125 -2.140625 -1.328125 -4.796875q0 -2.5625 1.0 -4.515625q1.0 -1.953125 2.875 -3.265625q1.890625 -1.3125 4.546875 -1.984375q2.65625 -0.6875 5.921875 -0.6875l6.328125 0zm19.0112 -12.546875l0 31.875l-5.484375 0l0 -31.875l5.484375 0zm-5.890625 -8.46875q0 -1.3125 0.796875 -2.21875q0.8125 -0.921875 2.40625 -0.921875q1.5625 0 2.40625 0.921875q0.84375 0.90625 0.84375 2.21875q0 1.28125 -0.84375 2.1875q-0.84375 0.890625 -2.40625 0.890625q-1.59375 0 -2.40625 -0.890625q-0.796875 -0.90625 -0.796875 -2.1875zm20.095306 15.265625l0 25.078125l-5.453125 0l0 -31.875l5.15625 0l0.296875 6.796875zm-1.296875 7.921875l-2.265625 -0.078125q0.015625 -3.265625 0.953125 -6.046875q0.953125 -2.796875 2.65625 -4.859375q1.71875 -2.0625 4.09375 -3.1875q2.375 -1.140625 5.25 -1.140625q2.359375 0 4.25 0.640625q1.890625 0.625 3.21875 2.015625q1.34375 1.375 2.046875 3.578125q0.71875 2.1875 0.71875 5.34375l0 20.890625l-5.484375 0l0 -20.953125q0 -2.5 -0.734375 -4.015625q-0.734375 -1.515625 -2.15625 -2.203125q-1.40625 -0.703125 -3.46875 -0.703125q-2.046875 0 -3.71875 0.859375q-1.65625 0.84375 -2.84375 2.359375q-1.1875 1.5 -1.859375 3.4375q-0.65625 1.921875 -0.65625 4.0625zm35.09024 -14.71875l0 31.875l-5.484375 0l0 -31.875l5.484375 0zm-5.890625 -8.46875q0 -1.3125 0.796875 -2.21875q0.8125 -0.921875 2.40625 -0.921875q1.5625 0 2.40625 0.921875q0.84375 0.90625 0.84375 2.21875q0 1.28125 -0.84375 2.1875q-0.84375 0.890625 -2.40625 0.890625q-1.59375 0 -2.40625 -0.890625q-0.796875 -0.90625 -0.796875 -2.1875zm20.095306 15.265625l0 25.078125l-5.453125 0l0 -31.875l5.15625 0l0.296875 6.796875zm-1.296875 7.921875l-2.265625 -0.078125q0.015625 -3.265625 0.953125 -6.046875q0.953125 -2.796875 2.65625 -4.859375q1.71875 -2.0625 4.09375 -3.1875q2.375 -1.140625 5.25 -1.140625q2.359375 0 4.25 0.640625q1.890625 0.625 3.21875 2.015625q1.34375 1.375 2.046875 3.578125q0.71875 2.1875 0.71875 5.34375l0 20.890625l-5.484375 0l0 -20.953125q0 -2.5 -0.734375 -4.015625q-0.734375 -1.515625 -2.15625 -2.203125q-1.40625 -0.703125 -3.46875 -0.703125q-2.046875 0 -3.71875 0.859375q-1.65625 0.84375 -2.84375 2.359375q-1.1875 1.5 -1.859375 3.4375q-0.65625 1.921875 -0.65625 4.0625zm49.824585 -14.71875l4.953125 0l0 31.203125q0 4.203125 -1.71875 7.171875q-1.703125 2.984375 -4.75 4.53125q-3.046875 1.546875 -7.03125 1.546875q-1.65625 0 -3.875 -0.515625q-2.21875 -0.515625 -4.359375 -1.734375q-2.140625 -1.21875 -3.578125 -3.28125l2.859375 -3.25q2.0 2.421875 4.1875 3.359375q2.203125 0.953125 4.359375 0.953125q2.578125 0 4.46875 -0.984375q1.890625 -0.96875 2.9375 -2.875q1.046875 -1.890625 1.046875 -4.65625l0 -24.46875l0.5 -7.0zm-21.953125 16.28125l0 -0.609375q0 -3.65625 0.859375 -6.640625q0.875 -3.0 2.5 -5.140625q1.640625 -2.15625 3.96875 -3.3125q2.328125 -1.171875 5.25 -1.171875q3.0 0 5.25 1.046875q2.265625 1.046875 3.84375 3.03125q1.578125 1.984375 2.484375 4.796875q0.921875 2.796875 1.265625 6.328125l0 2.703125q-0.3125 3.515625 -1.25 6.3125q-0.921875 2.796875 -2.5 4.78125q-1.578125 1.96875 -3.84375 3.015625q-2.265625 1.046875 -5.3125 1.046875q-2.859375 0 -5.171875 -1.203125q-2.3125 -1.21875 -3.96875 -3.390625q-1.640625 -2.1875 -2.515625 -5.140625q-0.859375 -2.96875 -0.859375 -6.453125zm5.453125 -0.609375l0 0.609375q0 2.390625 0.484375 4.484375q0.484375 2.09375 1.5 3.6875q1.015625 1.59375 2.609375 2.5q1.59375 0.890625 3.796875 0.890625q2.71875 0 4.484375 -1.140625q1.765625 -1.15625 2.8125 -3.046875q1.046875 -1.890625 1.640625 -4.09375l0 -7.109375q-0.328125 -1.609375 -1.0 -3.125q-0.65625 -1.53125 -1.703125 -2.71875q-1.046875 -1.1875 -2.578125 -1.890625q-1.53125 -0.71875 -3.59375 -0.71875q-2.234375 0 -3.84375 0.9375q-1.609375 0.921875 -2.625 2.53125q-1.015625 1.59375 -1.5 3.703125q-0.484375 2.109375 -0.484375 4.5zm52.82126 16.203125l-5.453125 0l0 -35.234375q0 -3.453125 1.25 -5.828125q1.265625 -2.375 3.609375 -3.59375q2.359375 -1.21875 5.609375 -1.21875q0.9375 0 1.890625 0.125q0.96875 0.109375 1.875 0.34375l-0.296875 4.453125q-0.609375 -0.15625 -1.390625 -0.203125q-0.78125 -0.0625 -1.546875 -0.0625q-1.734375 0 -3.0 0.6875q-1.25 0.6875 -1.90625 2.015625q-0.640625 1.328125 -0.640625 3.28125l0 35.234375zm6.78125 -31.875l0 4.171875l-17.265625 0l0 -4.171875l17.265625 0zm4.619507 16.28125l0 -0.671875q0 -3.453125 1.0 -6.40625q1.015625 -2.96875 2.890625 -5.15625q1.890625 -2.203125 4.5625 -3.421875q2.6875 -1.21875 6.015625 -1.21875q3.359375 0 6.046875 1.21875q2.703125 1.21875 4.609375 3.421875q1.90625 2.1875 2.90625 5.15625q1.0 2.953125 1.0 6.40625l0 0.671875q0 3.453125 -1.0 6.40625q-1.0 2.9375 -2.90625 5.140625q-1.90625 2.1875 -4.578125 3.421875q-2.65625 1.21875 -6.015625 1.21875q-3.359375 0 -6.046875 -1.21875q-2.671875 -1.234375 -4.578125 -3.421875q-1.890625 -2.203125 -2.90625 -5.140625q-1.0 -2.953125 -1.0 -6.40625zm5.453125 -0.671875l0 0.671875q0 2.390625 0.5625 4.5q0.5625 2.109375 1.6875 3.734375q1.140625 1.609375 2.84375 2.546875q1.71875 0.921875 3.984375 0.921875q2.234375 0 3.921875 -0.921875q1.703125 -0.9375 2.828125 -2.546875q1.125 -1.625 1.6875 -3.734375q0.578125 -2.109375 0.578125 -4.5l0 -0.671875q0 -2.359375 -0.578125 -4.453125q-0.5625 -2.109375 -1.703125 -3.75q-1.140625 -1.640625 -2.828125 -2.578125q-1.6875 -0.9375 -3.96875 -0.9375q-2.234375 0 -3.9375 0.9375q-1.6875 0.9375 -2.828125 2.578125q-1.125 1.640625 -1.6875 3.75q-0.5625 2.09375 -0.5625 4.453125zm35.86792 -10.609375l0 26.875l-5.453125 0l0 -31.875l5.296875 0l0.15625 5.0zm9.953125 -5.1875l-0.03125 5.078125q-0.671875 -0.15625 -1.28125 -0.1875q-0.59375 -0.046875 -1.359375 -0.046875q-1.890625 0 -3.34375 0.59375q-1.4375 0.578125 -2.4375 1.640625q-1.0 1.0625 -1.578125 2.515625q-0.578125 1.453125 -0.75 3.203125l-1.53125 0.875q0 -2.890625 0.5625 -5.421875q0.578125 -2.53125 1.78125 -4.484375q1.21875 -1.96875 3.09375 -3.0625q1.875 -1.109375 4.46875 -1.109375q0.578125 0 1.34375 0.140625q0.765625 0.125 1.0625 0.265625zm25.93219 -13.203125l0 45.265625l-5.484375 0l0 -45.265625l5.484375 0zm14.673462 13.390625l0 31.875l-5.484375 0l0 -31.875l5.484375 0zm-5.890625 -8.46875q0 -1.3125 0.796875 -2.21875q0.8125 -0.921875 2.40625 -0.921875q1.5625 0 2.40625 0.921875q0.84375 0.90625 0.84375 2.21875q0 1.28125 -0.84375 2.1875q-0.84375 0.890625 -2.40625 0.890625q-1.59375 0 -2.40625 -0.890625q-0.796875 -0.90625 -0.796875 -2.1875zm22.76715 40.34375l-5.453125 0l0 -35.234375q0 -3.453125 1.25 -5.828125q1.265625 -2.375 3.609375 -3.59375q2.359375 -1.21875 5.609375 -1.21875q0.9375 0 1.890625 0.125q0.96875 0.109375 1.875 0.34375l-0.296875 4.453125q-0.609375 -0.15625 -1.390625 -0.203125q-0.78125 -0.0625 -1.546875 -0.0625q-1.734375 0 -3.0 0.6875q-1.25 0.6875 -1.90625 2.015625q-0.640625 1.328125 -0.640625 3.28125l0 35.234375zm6.78125 -31.875l0 4.171875l-17.265625 0l0 -4.171875l17.265625 0zm18.599854 32.46875q-3.34375 0 -6.046875 -1.125q-2.6875 -1.140625 -4.625 -3.203125q-1.921875 -2.0625 -2.953125 -4.890625q-1.03125 -2.84375 -1.03125 -6.203125l0 -1.234375q0 -3.890625 1.140625 -6.9375q1.15625 -3.046875 3.125 -5.171875q1.984375 -2.125 4.484375 -3.203125q2.515625 -1.09375 5.1875 -1.09375q3.421875 0 5.90625 1.1875q2.5 1.171875 4.078125 3.28125q1.59375 2.09375 2.359375 4.9375q0.765625 2.84375 0.765625 6.203125l0 2.453125l-23.796875 0l0 -4.453125l18.359375 0l0 -0.40625q-0.125 -2.125 -0.875 -4.125q-0.75 -2.015625 -2.375 -3.296875q-1.625 -1.296875 -4.421875 -1.296875q-1.84375 0 -3.40625 0.78125q-1.5625 0.765625 -2.6875 2.3125q-1.125 1.53125 -1.75 3.734375q-0.609375 2.203125 -0.609375 5.09375l0 1.234375q0 2.28125 0.625 4.265625q0.640625 1.984375 1.859375 3.5q1.234375 1.5 2.984375 2.359375q1.75 0.84375 3.984375 0.84375q2.890625 0 4.890625 -1.171875q2.015625 -1.1875 3.515625 -3.15625l3.296875 2.625q-1.03125 1.5625 -2.625 2.984375q-1.59375 1.40625 -3.90625 2.296875q-2.3125 0.875 -5.453125 0.875zm18.858032 -3.484375q0 -1.375 0.859375 -2.328125q0.875 -0.96875 2.515625 -0.96875q1.65625 0 2.515625 0.96875q0.875 0.953125 0.875 2.328125q0 1.359375 -0.875 2.3125q-0.859375 0.9375 -2.515625 0.9375q-1.640625 0 -2.515625 -0.9375q-0.859375 -0.953125 -0.859375 -2.3125z" fill-rule="nonzero"/></g></svg>